<?xml version="1.0" encoding="utf-8"?>
<!-- Generator: Adobe Illustrator 26.2.1, SVG Export Plug-In . SVG Version: 6.00 Build 0)  -->
<svg version="1.1" id="Layer_1" xmlns="http://www.w3.org/2000/svg" xmlns:xlink="http://www.w3.org/1999/xlink" x="0px" y="0px"
	 viewBox="0 0 271.7 86.3" style="enable-background:new 0 0 271.7 86.3;" xml:space="preserve">
<style type="text/css">
	.st0{fill:#FFFFFF;}
	.st1{font-family:'Roboto-Black';}
	.st2{font-size:53.6115px;}
	.st3{fill:url(#SVGID_1_);}
	.st4{fill:url(#SVGID_00000183233125914845846040000004943971094269466512_);}
	.st5{fill:url(#SVGID_00000008828694490535259330000006093522329327184023_);}
	.st6{fill:url(#SVGID_00000008869482968841819730000002355535689136129977_);}
	.st7{fill:url(#SVGID_00000111158767254675496010000016760956352223720632_);}
	.st8{fill:url(#SVGID_00000120549343092407571130000017249876101955679647_);}
	.st9{fill:url(#SVGID_00000178893867609970589510000015787705341998295949_);}
	.st10{fill:url(#SVGID_00000120545923898384644310000015287226305114548643_);}
	.st11{fill:url(#SVGID_00000158004621566265493660000008307002179371473047_);}
	.st12{fill:url(#SVGID_00000065076867067827976740000005456325077877753989_);}
	.st13{fill:url(#SVGID_00000125583667238905737720000018279467774681965967_);}
	.st14{fill:url(#SVGID_00000046309550648755199560000005594624724681301406_);}
</style>
<text transform="matrix(1 0 0 1 127.8596 363.5999)" style="fill:#12AAFF; font-family:'Poppins-Medium'; font-size:9.7737px; letter-spacing:2;">TAGLINE GOES HERE</text>
<text transform="matrix(1 0 0 1 53.984 71.7314)" class="st0 st1 st2">MovieDB</text>
<g>
	
		<linearGradient id="SVGID_1_" gradientUnits="userSpaceOnUse" x1="572.1095" y1="779.9944" x2="572.1095" y2="835.4667" gradientTransform="matrix(0 1 -1 0 832.4768 -519.1435)">
		<stop  offset="0" style="stop-color:#0900FB"/>
		<stop  offset="1" style="stop-color:#00C3FF"/>
	</linearGradient>
	<path class="st3" d="M39.2,47.2L8.7,30.5c-4-2.2-8.7,0.9-8.7,5.8V53v16.7c0,4.8,4.7,7.9,8.7,5.8l30.6-16.7
		C43.6,56.3,43.6,49.6,39.2,47.2z"/>
	
		<linearGradient id="SVGID_00000166634173700574126730000007111249476391527561_" gradientUnits="userSpaceOnUse" x1="733.7537" y1="-532.0337" x2="733.7537" y2="-501.6065" gradientTransform="matrix(0 -1 1 0 534.6798 753.4768)">
		<stop  offset="0" style="stop-color:#F7A000"/>
		<stop  offset="1" style="stop-color:#FFE115"/>
	</linearGradient>
	<path style="fill:url(#SVGID_00000166634173700574126730000007111249476391527561_);" d="M9.9,22.9l16.8,9.2
		c2.2,1.2,4.7-0.5,4.7-3.2v-9.2v-9.2c0-2.6-2.6-4.3-4.7-3.2L9.9,16.6C7.5,17.9,7.5,21.6,9.9,22.9z"/>
	
		<linearGradient id="SVGID_00000140005047102081285790000011447215300447291527_" gradientUnits="userSpaceOnUse" x1="748.4706" y1="-522.5844" x2="748.4706" y2="-507.5981" gradientTransform="matrix(0 -1 1 0 554.0899 784.0136)">
		<stop  offset="0" style="stop-color:#DC003E"/>
		<stop  offset="1" style="stop-color:#FF6D98"/>
	</linearGradient>
	<path style="fill:url(#SVGID_00000140005047102081285790000011447215300447291527_);" d="M35.1,37.1l8.3,4.5
		c1.1,0.6,2.3-0.3,2.3-1.6v-4.5V31c0-1.3-1.3-2.1-2.3-1.6L35.1,34C33.9,34.6,33.9,36.5,35.1,37.1z"/>
	
		<linearGradient id="SVGID_00000109744683479895067030000017325742045793126802_" gradientUnits="userSpaceOnUse" x1="44.7308" y1="65.227" x2="8.1443" y2="37.3837">
		<stop  offset="0" style="stop-color:#0900FB"/>
		<stop  offset="1" style="stop-color:#00C3FF"/>
	</linearGradient>
	<path style="fill:url(#SVGID_00000109744683479895067030000017325742045793126802_);" d="M8.7,39.4l30.6,16.7
		c0.6,0.4,1.2,0.8,1.6,1.3c2.6-3,2.1-8.2-1.6-10.2L8.7,30.5c-4-2.2-8.7,0.9-8.7,5.8v8.9C0,40.3,4.7,37.2,8.7,39.4z"/>
	
		<linearGradient id="SVGID_00000158001315077388810630000009993542464326758578_" gradientUnits="userSpaceOnUse" x1="-6.8867" y1="30.7323" x2="27.682" y2="12.7081">
		<stop  offset="0" style="stop-color:#F7A000"/>
		<stop  offset="1" style="stop-color:#FFE115"/>
	</linearGradient>
	<path style="fill:url(#SVGID_00000158001315077388810630000009993542464326758578_);" d="M26.7,7.4L9.9,16.6
		c-2.3,1.3-2.4,4.8-0.2,6.2c0.1,0,0.1-0.1,0.2-0.1l16.8-9.2c2.2-1.2,4.7,0.5,4.7,3.2v-6.1C31.4,7.9,28.9,6.2,26.7,7.4z"/>
	
		<linearGradient id="SVGID_00000093144960992732654960000007912887954828665779_" gradientUnits="userSpaceOnUse" x1="28.0543" y1="38.8123" x2="50.1138" y2="30.2037">
		<stop  offset="0" style="stop-color:#DC003E"/>
		<stop  offset="1" style="stop-color:#FF6D98"/>
	</linearGradient>
	<path style="fill:url(#SVGID_00000093144960992732654960000007912887954828665779_);" d="M43.3,29.5L35.1,34
		c-1.2,0.6-1.2,2.5,0,3.1l1.1,0.6l7.2-3.9c1.1-0.6,2.3,0.3,2.3,1.6V31C45.7,29.7,44.4,28.9,43.3,29.5z"/>
</g>
<g>
	
		<linearGradient id="SVGID_00000075164442760662873850000000129516922828556179_" gradientUnits="userSpaceOnUse" x1="574.1095" y1="480.9944" x2="574.1095" y2="536.4667" gradientTransform="matrix(0 1 -1 0 832.4768 -519.1435)">
		<stop  offset="0" style="stop-color:#0900FB"/>
		<stop  offset="1" style="stop-color:#00C3FF"/>
	</linearGradient>
	<path style="fill:url(#SVGID_00000075164442760662873850000000129516922828556179_);" d="M338.2,49.2l-30.6-16.7
		c-4-2.2-8.7,0.9-8.7,5.8V55v16.7c0,4.8,4.7,7.9,8.7,5.8l30.6-16.7C342.6,58.3,342.6,51.6,338.2,49.2z"/>
	
		<linearGradient id="SVGID_00000002352339430984018390000017055929755380135592_" gradientUnits="userSpaceOnUse" x1="731.7537" y1="-233.0337" x2="731.7537" y2="-202.6065" gradientTransform="matrix(0 -1 1 0 534.6798 753.4768)">
		<stop  offset="0" style="stop-color:#F7A000"/>
		<stop  offset="1" style="stop-color:#FFE115"/>
	</linearGradient>
	<path style="fill:url(#SVGID_00000002352339430984018390000017055929755380135592_);" d="M308.9,24.9l16.8,9.2
		c2.2,1.2,4.7-0.5,4.7-3.2v-9.2v-9.2c0-2.6-2.6-4.3-4.7-3.2l-16.8,9.2C306.5,19.9,306.5,23.6,308.9,24.9z"/>
	
		<linearGradient id="SVGID_00000011714716393013217860000010593766036551681943_" gradientUnits="userSpaceOnUse" x1="746.4706" y1="-223.5843" x2="746.4706" y2="-208.5981" gradientTransform="matrix(0 -1 1 0 554.0899 784.0136)">
		<stop  offset="0" style="stop-color:#DC003E"/>
		<stop  offset="1" style="stop-color:#FF6D98"/>
	</linearGradient>
	<path style="fill:url(#SVGID_00000011714716393013217860000010593766036551681943_);" d="M334.1,39.1l8.3,4.5
		c1.1,0.6,2.3-0.3,2.3-1.6v-4.5V33c0-1.3-1.3-2.1-2.3-1.6l-8.3,4.5C332.9,36.6,332.9,38.5,334.1,39.1z"/>
	
		<linearGradient id="SVGID_00000035500412832738003650000016481947312380882848_" gradientUnits="userSpaceOnUse" x1="343.7308" y1="67.227" x2="307.1443" y2="39.3837">
		<stop  offset="0" style="stop-color:#0900FB"/>
		<stop  offset="1" style="stop-color:#00C3FF"/>
	</linearGradient>
	<path style="fill:url(#SVGID_00000035500412832738003650000016481947312380882848_);" d="M307.7,41.4l30.6,16.7
		c0.6,0.4,1.2,0.8,1.6,1.3c2.6-3,2.1-8.2-1.6-10.2l-30.6-16.7c-4-2.2-8.7,0.9-8.7,5.8v8.9C299,42.3,303.7,39.2,307.7,41.4z"/>
	
		<linearGradient id="SVGID_00000172403709954225737080000011146456680283524771_" gradientUnits="userSpaceOnUse" x1="292.1133" y1="32.7323" x2="326.682" y2="14.7081">
		<stop  offset="0" style="stop-color:#F7A000"/>
		<stop  offset="1" style="stop-color:#FFE115"/>
	</linearGradient>
	<path style="fill:url(#SVGID_00000172403709954225737080000011146456680283524771_);" d="M325.7,9.4l-16.8,9.2
		c-2.3,1.3-2.4,4.8-0.2,6.2c0.1,0,0.1-0.1,0.2-0.1l16.8-9.2c2.2-1.2,4.7,0.5,4.7,3.2v-6.1C330.4,9.9,327.9,8.2,325.7,9.4z"/>
	
		<linearGradient id="SVGID_00000041261685550380216520000001155168688469681809_" gradientUnits="userSpaceOnUse" x1="327.0543" y1="40.8123" x2="349.1138" y2="32.2037">
		<stop  offset="0" style="stop-color:#DC003E"/>
		<stop  offset="1" style="stop-color:#FF6D98"/>
	</linearGradient>
	<path style="fill:url(#SVGID_00000041261685550380216520000001155168688469681809_);" d="M342.3,31.5l-8.3,4.5
		c-1.2,0.6-1.2,2.5,0,3.1l1.1,0.6l7.2-3.9c1.1-0.6,2.3,0.3,2.3,1.6V33C344.7,31.7,343.4,30.9,342.3,31.5z"/>
</g>
</svg>
