<?xml version="1.0" encoding="utf-8"?>
<!-- Generator: Adobe Illustrator 26.2.1, SVG Export Plug-In . SVG Version: 6.00 Build 0)  -->
<svg version="1.1" id="Layer_1" xmlns="http://www.w3.org/2000/svg" xmlns:xlink="http://www.w3.org/1999/xlink" x="0px" y="0px"
	 viewBox="0 0 46.7 70.3" style="enable-background:new 0 0 46.7 70.3;" xml:space="preserve">
<style type="text/css">
	.st0{fill:url(#SVGID_1_);}
	.st1{fill:url(#SVGID_00000048501037073244040610000006330655278405836203_);}
	.st2{fill:url(#SVGID_00000119081031748862596650000012658254723663123848_);}
	.st3{fill:url(#SVGID_00000160877709878301655780000004915784407580626615_);}
	.st4{fill:url(#SVGID_00000102530304725784249160000009781664567881118094_);}
	.st5{fill:url(#SVGID_00000022537865807529993610000006947214807823433124_);}
	.st6{fill:url(#SVGID_00000004508275029222308160000006743289061337410718_);}
	.st7{fill:url(#SVGID_00000168082121255209124650000006308527364987460781_);}
	.st8{fill:url(#SVGID_00000179644275607845755740000012572666738767221948_);}
	.st9{fill:url(#SVGID_00000164508847559348001850000011141574436506220688_);}
	.st10{fill:url(#SVGID_00000134216001227393417460000003334439986752441755_);}
	.st11{fill:url(#SVGID_00000007414678938117241530000009789667410389302417_);}
</style>
<text transform="matrix(1 0 0 1 -170.8817 355.5999)" style="fill:#12AAFF; font-family:'Poppins-Medium'; font-size:9.7737px; letter-spacing:2;">TAGLINE GOES HERE</text>
<text transform="matrix(1 0 0 1 -244.7573 63.7314)" style="fill:#FFFFFF; font-family:'Roboto-Black'; font-size:53.6115px;">MovieDB</text>
<g>
	
		<linearGradient id="SVGID_1_" gradientUnits="userSpaceOnUse" x1="273.3682" y1="771.9944" x2="273.3682" y2="827.4667" gradientTransform="matrix(0 1 -1 0 525.7355 -228.4022)">
		<stop  offset="0" style="stop-color:#0900FB"/>
		<stop  offset="1" style="stop-color:#00C3FF"/>
	</linearGradient>
	<path class="st0" d="M-259.5,39.2l-30.6-16.7c-4-2.2-8.7,0.9-8.7,5.8V45v16.7c0,4.8,4.7,7.9,8.7,5.8l30.6-16.7
		C-255.1,48.3-255.1,41.6-259.5,39.2z"/>
	
		<linearGradient id="SVGID_00000154422332951918640200000017284966368512726666_" gradientUnits="userSpaceOnUse" x1="435.0123" y1="-540.0337" x2="435.0123" y2="-509.6065" gradientTransform="matrix(0 -1 1 0 243.9385 446.7355)">
		<stop  offset="0" style="stop-color:#F7A000"/>
		<stop  offset="1" style="stop-color:#FFE115"/>
	</linearGradient>
	<path style="fill:url(#SVGID_00000154422332951918640200000017284966368512726666_);" d="M-288.8,14.9l16.8,9.2
		c2.2,1.2,4.7-0.5,4.7-3.2v-9.2V2.5c0-2.6-2.6-4.3-4.7-3.2l-16.8,9.2C-291.2,9.9-291.2,13.6-288.8,14.9z"/>
	
		<linearGradient id="SVGID_00000050650493790189853350000000393634800991263900_" gradientUnits="userSpaceOnUse" x1="449.7293" y1="-530.5844" x2="449.7293" y2="-515.5981" gradientTransform="matrix(0 -1 1 0 263.3486 477.2723)">
		<stop  offset="0" style="stop-color:#DC003E"/>
		<stop  offset="1" style="stop-color:#FF6D98"/>
	</linearGradient>
	<path style="fill:url(#SVGID_00000050650493790189853350000000393634800991263900_);" d="M-263.7,29.1l8.3,4.5
		c1.1,0.6,2.3-0.3,2.3-1.6v-4.5V23c0-1.3-1.3-2.1-2.3-1.6l-8.3,4.5C-264.8,26.6-264.8,28.5-263.7,29.1z"/>
	
		<linearGradient id="SVGID_00000110468726815204648770000018065659090150108309_" gradientUnits="userSpaceOnUse" x1="-254.0105" y1="57.227" x2="-290.597" y2="29.3837">
		<stop  offset="0" style="stop-color:#0900FB"/>
		<stop  offset="1" style="stop-color:#00C3FF"/>
	</linearGradient>
	<path style="fill:url(#SVGID_00000110468726815204648770000018065659090150108309_);" d="M-290.1,31.4l30.6,16.7
		c0.6,0.4,1.2,0.8,1.6,1.3c2.6-3,2.1-8.2-1.6-10.2l-30.6-16.7c-4-2.2-8.7,0.9-8.7,5.8v8.9C-298.7,32.3-294.1,29.2-290.1,31.4z"/>
	
		<linearGradient id="SVGID_00000049902586051504020430000005412187222077349527_" gradientUnits="userSpaceOnUse" x1="-305.6281" y1="22.7323" x2="-271.0593" y2="4.7081">
		<stop  offset="0" style="stop-color:#F7A000"/>
		<stop  offset="1" style="stop-color:#FFE115"/>
	</linearGradient>
	<path style="fill:url(#SVGID_00000049902586051504020430000005412187222077349527_);" d="M-272.1-0.6l-16.8,9.2
		c-2.3,1.3-2.4,4.8-0.2,6.2c0.1,0,0.1-0.1,0.2-0.1l16.8-9.2c2.2-1.2,4.7,0.5,4.7,3.2V2.5C-267.3-0.1-269.9-1.8-272.1-0.6z"/>
	
		<linearGradient id="SVGID_00000076599100009738920950000000655775710274781335_" gradientUnits="userSpaceOnUse" x1="-270.6871" y1="30.8123" x2="-248.6275" y2="22.2037">
		<stop  offset="0" style="stop-color:#DC003E"/>
		<stop  offset="1" style="stop-color:#FF6D98"/>
	</linearGradient>
	<path style="fill:url(#SVGID_00000076599100009738920950000000655775710274781335_);" d="M-255.4,21.5l-8.3,4.5
		c-1.2,0.6-1.2,2.5,0,3.1l1.1,0.6l7.2-3.9c1.1-0.6,2.3,0.3,2.3,1.6V23C-253.1,21.7-254.3,20.9-255.4,21.5z"/>
</g>
<g>
	
		<linearGradient id="SVGID_00000003086186654043077460000004719438860022494900_" gradientUnits="userSpaceOnUse" x1="275.3682" y1="472.9944" x2="275.3682" y2="528.4667" gradientTransform="matrix(0 1 -1 0 525.7355 -228.4022)">
		<stop  offset="0" style="stop-color:#0900FB"/>
		<stop  offset="1" style="stop-color:#00C3FF"/>
	</linearGradient>
	<path style="fill:url(#SVGID_00000003086186654043077460000004719438860022494900_);" d="M39.5,41.2L8.9,24.5
		c-4-2.2-8.7,0.9-8.7,5.8V47v16.7c0,4.8,4.7,7.9,8.7,5.8l30.6-16.7C43.9,50.3,43.9,43.6,39.5,41.2z"/>
	
		<linearGradient id="SVGID_00000126285905073366970080000006975620754033505931_" gradientUnits="userSpaceOnUse" x1="433.0123" y1="-241.0337" x2="433.0123" y2="-210.6065" gradientTransform="matrix(0 -1 1 0 243.9385 446.7355)">
		<stop  offset="0" style="stop-color:#F7A000"/>
		<stop  offset="1" style="stop-color:#FFE115"/>
	</linearGradient>
	<path style="fill:url(#SVGID_00000126285905073366970080000006975620754033505931_);" d="M10.2,16.9l16.8,9.2
		c2.2,1.2,4.7-0.5,4.7-3.2v-9.2V4.5c0-2.6-2.6-4.3-4.7-3.2l-16.8,9.2C7.8,11.9,7.8,15.6,10.2,16.9z"/>
	
		<linearGradient id="SVGID_00000034801647786600951840000004981820744115486632_" gradientUnits="userSpaceOnUse" x1="447.7293" y1="-231.5843" x2="447.7293" y2="-216.5981" gradientTransform="matrix(0 -1 1 0 263.3486 477.2723)">
		<stop  offset="0" style="stop-color:#DC003E"/>
		<stop  offset="1" style="stop-color:#FF6D98"/>
	</linearGradient>
	<path style="fill:url(#SVGID_00000034801647786600951840000004981820744115486632_);" d="M35.3,31.1l8.3,4.5
		c1.1,0.6,2.3-0.3,2.3-1.6v-4.5V25c0-1.3-1.3-2.1-2.3-1.6L35.3,28C34.2,28.6,34.2,30.5,35.3,31.1z"/>
	
		<linearGradient id="SVGID_00000020398381081201629090000011016785693307752581_" gradientUnits="userSpaceOnUse" x1="44.9895" y1="59.227" x2="8.403" y2="31.3837">
		<stop  offset="0" style="stop-color:#0900FB"/>
		<stop  offset="1" style="stop-color:#00C3FF"/>
	</linearGradient>
	<path style="fill:url(#SVGID_00000020398381081201629090000011016785693307752581_);" d="M8.9,33.4l30.6,16.7
		c0.6,0.4,1.2,0.8,1.6,1.3c2.6-3,2.1-8.2-1.6-10.2L8.9,24.5c-4-2.2-8.7,0.9-8.7,5.8v8.9C0.3,34.3,4.9,31.2,8.9,33.4z"/>
	
		<linearGradient id="SVGID_00000064335484420708956830000004843284514701430671_" gradientUnits="userSpaceOnUse" x1="-6.6281" y1="24.7323" x2="27.9407" y2="6.7081">
		<stop  offset="0" style="stop-color:#F7A000"/>
		<stop  offset="1" style="stop-color:#FFE115"/>
	</linearGradient>
	<path style="fill:url(#SVGID_00000064335484420708956830000004843284514701430671_);" d="M26.9,1.4l-16.8,9.2
		c-2.3,1.3-2.4,4.8-0.2,6.2c0.1,0,0.1-0.1,0.2-0.1l16.8-9.2c2.2-1.2,4.7,0.5,4.7,3.2V4.5C31.7,1.9,29.1,0.2,26.9,1.4z"/>
	
		<linearGradient id="SVGID_00000090295202670300556210000011418206707402271412_" gradientUnits="userSpaceOnUse" x1="28.3129" y1="32.8123" x2="50.3725" y2="24.2037">
		<stop  offset="0" style="stop-color:#DC003E"/>
		<stop  offset="1" style="stop-color:#FF6D98"/>
	</linearGradient>
	<path style="fill:url(#SVGID_00000090295202670300556210000011418206707402271412_);" d="M43.6,23.5L35.3,28
		c-1.2,0.6-1.2,2.5,0,3.1l1.1,0.6l7.2-3.9c1.1-0.6,2.3,0.3,2.3,1.6V25C45.9,23.7,44.7,22.9,43.6,23.5z"/>
</g>
</svg>
