<?xml version="1.0" encoding="utf-8"?>
<!-- Generator: Adobe Illustrator 26.2.1, SVG Export Plug-In . SVG Version: 6.00 Build 0)  -->
<svg version="1.1" id="Layer_1" xmlns="http://www.w3.org/2000/svg" xmlns:xlink="http://www.w3.org/1999/xlink" x="0px" y="0px"
	 viewBox="0 0 15.9 16.6" style="enable-background:new 0 0 15.9 16.6;" xml:space="preserve">
<style type="text/css">
	.st0{fill:#FFAD49;}
</style>
<g id="vuesax_x2F_linear_x2F_star">
	<g id="star">
		<g id="Vector">
			<path class="st0" d="M11.6,15.7c-0.4,0-0.9-0.1-1.5-0.5l-2-1.2C8,14,7.7,14,7.6,14l-2,1.2c-1.3,0.8-2.1,0.4-2.5,0.2
				S2.2,14.5,2.6,13L3,11c0-0.1,0-0.4-0.1-0.5L1.2,8.8C0.6,8.1,0.3,7.4,0.5,6.7s0.9-1.2,1.8-1.3L4.5,5c0.1,0,0.3-0.2,0.4-0.3L6,2.3
				C6.6,1.2,7.4,1,7.9,1c0,0,0,0,0,0c0.4,0,1.2,0.2,1.8,1.4l1.2,2.3C10.9,4.8,11.1,5,11.3,5l2.1,0.4C14.3,5.5,15,6,15.2,6.7
				c0.2,0.7,0,1.5-0.7,2.1l-1.7,1.7c-0.1,0.1-0.2,0.4-0.1,0.5l0.5,2c0.3,1.5-0.2,2.1-0.6,2.4C12.4,15.5,12.1,15.7,11.6,15.7z
				 M7.9,12.5c0.4,0,0.7,0.1,1,0.3l2,1.2c0.5,0.3,0.8,0.3,0.8,0.3c0,0,0.1-0.3,0-0.8l-0.5-2c-0.1-0.6,0.1-1.4,0.5-1.9l1.7-1.7
				c0.3-0.3,0.4-0.5,0.3-0.6c0-0.1-0.2-0.2-0.6-0.3L11,6.5c-0.6-0.1-1.2-0.6-1.5-1.1L8.4,3c0,0,0,0,0,0C8.2,2.6,8,2.5,7.9,2.5
				c0,0,0,0,0,0C7.8,2.5,7.6,2.6,7.4,3L6.2,5.4c-0.3,0.5-0.9,1-1.5,1.1L2.6,6.8C2.2,6.9,2,7,2,7.1c0,0.1,0,0.3,0.3,0.6L4,9.4
				c0.5,0.5,0.7,1.3,0.5,1.9L4,13.3c-0.1,0.6,0,0.8,0,0.8c0,0,0.3,0,0.8-0.3l2-1.2C7.1,12.6,7.5,12.5,7.9,12.5z"/>
		</g>
	</g>
</g>
</svg>
